<svg xmlns="http://www.w3.org/2000/svg" viewBox="0 0 100 120">
  <defs>
    <mask id="violin-cutouts">
      <rect width="100" height="120" fill="#fff"/>
      <path d="M39 59c-5 6-5 13-1 19m23-19c5 6 5 13 1 19" fill="none" stroke="#000" stroke-linecap="round" stroke-width="3.5"/>
      <path d="M48 17v56m4-56v49" fill="none" stroke="#000" stroke-linecap="round" stroke-width="1.6"/>
    </mask>
  </defs>
  <g fill="#f3f0e8" mask="url(#violin-cutouts)">
    <circle cx="50" cy="8" r="6"/>
    <path d="M46 12h8v35h-8z"/>
    <path d="M40 19h20v4H40zM40 27h20v4H40z"/>
    <path d="M47 43c-5 3-10 2-15 4-8 3-10 11-5 17 4 5 3 8-2 13-8 8-5 21 3 29 6 6 14 9 22 10 8-1 16-4 22-10 8-8 11-21 3-29-5-5-6-8-2-13 5-6 3-14-5-17-5-2-10-1-15-4z"/>
  </g>
  <path d="M48 108c-3-7-2-12 4-16 6-4 6-10 0-13-6-3-5-9 1-12" fill="none" stroke="#5aadff" stroke-linecap="round" stroke-width="7"/>
  <circle cx="53" cy="67" r="4.5" fill="#5aadff"/>
  <circle cx="54.5" cy="66" r="1.2" fill="#ffd95a"/>
</svg>
